<!DOCTYPE svg PUBLIC "-//W3C//DTD SVG 1.1//EN" "http://www.w3.org/Graphics/SVG/1.1/DTD/svg11.dtd">
<svg xmlns="http://www.w3.org/2000/svg" viewBox="0 0 100 100">
<path fill="#b9e2e2" stroke="#b9e2e2" d="M42 5.599c-2.475.754-5.433 1.377-6.572 1.386-2.203.016-13.698 5.825-14.263 7.208-.185.451-.731.575-1.214.277-.483-.299-1.757.336-2.831 1.41-1.074 1.074-2.179 1.727-2.456 1.451C13.719 16.385 8 22.713 8 24.705c0 1.093-.676 3.343-1.503 5-4.988 10 .136 42.192 7.359 46.234.904.506 1.563 1.289 1.465 1.741-.163.749 5.465 6.869 11.679 12.697 8.544 8.014 28.82 7.154 44.698-1.896 9.98-5.688 27.733-26.361 24.404-28.418-.859-.531-.927-1.886-.245-4.92.776-3.456.587-4.918-1.083-8.375-1.113-2.304-2.024-5.227-2.024-6.497 0-1.269-.394-2.551-.875-2.848-.481-.298-.875-1.167-.875-1.932 0-3.448-12.69-18.261-20.638-24.09C67.875 9.576 59.551 6.262 55 5.283c-4.674-1.004-9.014-.899-13 .316m-5.178 10.784c-24.205 9.955-30.761 40.055-12.85 58.994 18.491 19.551 52.089 12.515 60.605-12.692 2.287-6.769 1.09-6.922-2.164-.276-3.178 6.49-5.253 7.657-2.386 1.341 1.061-2.337 1.917-5.6 1.902-7.25-.024-2.637-.442-2.192-3.455 3.677-4.48 8.725-7.169 10.987-3.8 3.195 1.472-3.405 1.837-5.462 1.437-8.107-.061-.405-1.068 1.058-2.237 3.25-3.091 5.792-7.65 11.279-9.99 12.022-3.035.963-3.197.126-.849-4.38 3.07-5.889 1.563-6.814-3.337-2.05-10.556 10.268-9.98 9.894-15.251 9.871-22.714-.101-32.446-33.517-14.609-50.164 5.991-5.592 9.232-7.627 13.895-8.726 2.789-.657 3.118-.907 1.267-.964-1.375-.042-5.055.974-8.178 2.259m18.991-1.7c.721.289 1.584.253 1.916-.079.332-.332-.258-.568-1.312-.525-1.165.048-1.402.285-.604.604M40.5 20c-.34.55-.141 1 .441 1S42 20.55 42 20s-.198-1-.441-1-.719.45-1.059 1m32 2c.995 1.1 2.035 2 2.31 2 .275 0-.315-.9-1.31-2-.995-1.1-2.035-2-2.31-2-.275 0 .315.9 1.31 2M47 31c0 .55.423 1 .941 1s1.219-.45 1.559-1c.34-.55-.084-1-.941-1S47 30.45 47 31" fill-rule="evenodd"/>
<path fill="#73c6ca" stroke="#73c6ca" d="M33.743 9.734c-9.628 4.626-11.214 5.59-16.352 9.942-10.144 8.59-13.853 24.585-9.21 39.716 1.2 3.909 2.08 7.671 1.956 8.358-.123.688.251 1.25.832 1.25s2.592 2.401 4.47 5.337c1.877 2.935 4.572 6.095 5.987 7.023 1.416.927 2.574 2.316 2.574 3.086 0 2.968 5.159 7.731 7.686 7.097 1.314-.33 4.229-.104 6.479.501 2.911.784 4.398.793 5.162.029.59-.59 3.57-1.084 6.623-1.098 6.195-.027 14.54-2.509 21.502-6.396C73.992 83.16 76.662 82 77.384 82c2.298 0 12.629-11.436 15.049-16.657 2.62-5.656 2.966-16.891.652-21.195-.696-1.294-1.046-3.19-.778-4.213.268-1.024-.137-2.379-.899-3.012-.762-.632-1.139-1.549-.838-2.036.301-.488.126-.887-.39-.887-.515 0-1.533-1.438-2.261-3.196C86.409 27.16 74.376 14 72.553 14c-.662 0-2.255-1.118-3.539-2.485-2.697-2.871-4.644-3.261-19.271-3.86-9.933-.407-11.158-.247-16 2.079m9.302 4.358C8.628 20.839 2.718 67.128 34.16 83.687c8.037 4.233 23.644 4.178 32.118-.113 26.764-13.553 27.379-52.566 1.038-65.914-7.836-3.971-16.053-5.179-24.271-3.568m-2.295 2.07c-1.513.553-2.75 1.417-2.75 1.921s-.723.917-1.607.917c-1.047 0-1.398.545-1.006 1.565.453 1.181.137 1.419-1.287.967-2.222-.705-8.409 5.835-10.85 11.468-1.602 3.696-2.482 11.262-1.22 10.482.408-.253.963.382 1.232 1.411.283 1.083 2.119 2.401 4.363 3.133 2.131.695 4.188 1.748 4.571 2.34 1.357 2.1 2.119-.409.846-2.788-.82-1.532-1.89-2.23-2.918-1.904-1.405.445-1.422.369-.124-.564.825-.594 1.728-1.086 2.006-1.095.863-.026 3.247 6.066 2.619 6.694-.327.326.007 1.088.742 1.692 1.116.917 1.115 1.513 0 3.599-.81 1.515-1.343 1.889-1.352.95-.008-.852.446-2.011 1.009-2.574.699-.699-.809-1.93-4.75-3.875-3.176-1.567-6.628-3.559-7.673-4.425-2.925-2.428-1.445 7.854 2.148 14.924 2.737 5.384 10.381 12 13.864 12 1.832 0 1.87-6.613.044-7.7-.738-.44-2.16-2.15-3.159-3.8-1.419-2.345-1.072-2.139 1.593.943 1.992 2.304 3.617 5.422 3.909 7.5.461 3.282.79 3.581 4.246 3.867 4.146.343 10.617-5.201 10.865-9.31.102-1.686.193-1.725.578-.25.659 2.52 1.878 2.167 4.311-1.25 3.935-5.527 5.701-2.302 2.033 3.714-1.078 1.767-1.544 3.47-1.037 3.784 1.574.972 8.418-6.059 11.253-11.562 3.318-6.441 5.067-4.323 2.391 2.897-2.082 5.617-1.114 4.785 2.381-2.048 4.442-8.683 7.002-6.841 2.939 2.114-3.094 6.821-1.474 6.062 2.077-.973 5.116-10.135 3.638-23.181-2.412-21.296-1.293.403-1.646.213-1.137-.61.406-.657 1.613-.965 2.682-.686 1.138.298 1.794.059 1.583-.575-1-3-15.392-.668-18.562 3.008L62.835 43.5l2.15-3.25c1.183-1.788 2.912-3.25 3.843-3.25.93 0 2.281-.944 3.001-2.098.835-1.337 1.994-1.92 3.193-1.607 1.035.271 2.095-.022 2.356-.651.285-.687 1.294-.146 2.526 1.356 2.701 3.292 2.724.753.032-3.603C72.557 18.458 53.46 11.52 40.75 16.162m-.257 2.827c.35.566-.051.734-.941.393-1.006-.386-1.552-.03-1.552 1.011 0 2.094 1.423 2.041 3.598-.134 1.298-1.298 1.85-1.414 2.169-.458.277.832.833.954 1.58.348.634-.513 2.053-1.155 3.153-1.425 1.1-.271-.389-.544-3.309-.608-3.271-.071-5.074.264-4.698.873m11.497 1.337c1.179 1.559 1.171 1.959-.054 2.735-2.148 1.359-3.221 1.125-2.574-.561.378-.985-.032-1.5-1.193-1.5C45.893 21 44 22.907 44 25.2c0 .99-.675 1.8-1.5 1.8s-1.5.488-1.5 1.083c0 1.776 2.423.457 3.487-1.898C45.509 23.923 48 23.158 48 25.107c0 .609.645.86 1.433.557 1.336-.512 3.334 4.358 2.733 6.66-.119.454.208.563.726.242.587-.362.572-1.924-.041-4.142-.716-2.596-.65-3.962.247-5.042.995-1.199.875-1.807-.629-3.182-1.764-1.613-1.789-1.606-.479.126m-12.45 4.021c-1.513 1.107-1.592 1.493-.441 2.161.773.448 1.051.428.62-.046-.43-.472.245-1.428 1.5-2.125 1.254-.696 1.805-1.282 1.222-1.302-.582-.019-1.888.571-2.901 1.312m29.71 1.181c-1.665 1.848-1.583 2.814.181 2.137 1.005-.386 1.319.037 1.053 1.419-.209 1.083.048 1.705.571 1.382.523-.323 1.968-1.123 3.211-1.777 2.204-1.159 2.214-1.235.399-3.038-1.813-1.799-1.845-1.786-1.201.5l.661 2.349-1.812-2.18c-1.528-1.838-2.009-1.963-3.063-.792M43.5 33.36l-4 3.883 3.594-2.621C45.071 33.18 47.659 32 48.844 32c2.582 0 2.886-1.609.406-2.145-1.034-.224-3.387 1.21-5.75 3.505m25.313-.677c.721.289 1.584.253 1.916-.079.332-.332-.258-.568-1.312-.525-1.165.048-1.402.285-.604.604m-2.734 1.9c.048 1.165.285 1.402.604.605.289-.722.253-1.585-.079-1.917-.332-.332-.568.258-.525 1.312M72.5 35c-.34.55.309 1 1.441 1C75.073 36 76 35.55 76 35s-.648-1-1.441-1-1.719.45-2.059 1m5 0c.34.55.816 1 1.059 1s.441-.45.441-1-.477-1-1.059-1-.781.45-.441 1m-40.628 4.75c-1.269 1.619-1.222 1.64.628.283 1.1-.807 2.188-1.594 2.417-1.75.229-.156-.054-.283-.628-.283s-1.662.788-2.417 1.75m-8.301 1.821c-.864.865-1.542 2.327-1.508 3.25.045 1.19.329 1.018.976-.593 1.157-2.881 3.694-3.876 6.08-2.386 2.578 1.61 3.312 1.446 1.524-.342-1.945-1.945-5.087-1.913-7.072.071M41 50c.825.533 1.95.969 2.5.969s.325-.436-.5-.969c-.825-.533-1.95-.969-2.5-.969s-.325.436.5.969m7.45 3.649c2.019 1.96 3.943 3.291 4.277 2.958.333-.334.112-.607-.493-.607s-1.354-.788-1.665-1.75c-.311-.962-1.741-2.294-3.177-2.958-2.263-1.046-2.121-.731 1.058 2.357M63.5 52c.995 1.1 2.035 2 2.31 2 .275 0-.315-.9-1.31-2-.995-1.1-2.035-2-2.31-2-.275 0 .315.9 1.31 2m5.313 1.683c.721.289 1.584.253 1.916-.079.332-.332-.258-.568-1.312-.525-1.165.048-1.402.285-.604.604m-11.922 4.523c.705.939.951 2.289.548 3-.59 1.042-.469 1.049.621.037 1.131-1.05 1.041-1.544-.548-3-1.713-1.569-1.775-1.573-.621-.037" fill-rule="evenodd"/>
<path fill="#c3e7e9" stroke="#c3e7e9" d="M33 10.956C26.998 14.802 18.712 22.84 17.235 26.25c-.656 1.512-1.877 2.75-2.714 2.75C13.51 29 13 29.97 13 31.891c0 1.59-.869 4.832-1.932 7.206-2.181 4.872-1.872 6.422.933 4.67 1.049-.655 1.752-1.347 1.562-1.537-.19-.19 1.169-3.459 3.021-7.263C30.574 6.22 68.73 5.761 83.687 34.16 86.253 39.031 86.5 40.421 86.5 50c0 11.808-2.001 17.552-8.938 25.657-3.109 3.632-5.562 5.134-18.798 11.507-.955.46-2.37.836-3.143.836-.774 0-1.666.675-1.983 1.5-.766 1.998-.999 2.052 10.127-2.361 11.579-4.591 14.505-6.289 20.736-12.033C91.355 68.788 96.514 55.672 93 53.5c-.55-.34-1-1.293-1-2.118 0-.881.477-1.205 1.158-.785.815.505.956.005.475-1.691a873.226 873.226 0 0 1-2.135-7.78c-2.026-7.491-5.532-13.058-12.822-20.356C66.533 8.615 65.391 8.135 48.5 8.097c-10.437-.023-11.23.123-15.5 2.859m9.299 5.15c-5.244 1.517-4.501 2.416 1.702 2.06 3.199-.184 6.757.169 7.907.785 2.252 1.205 2.844 4.632.912 5.276-.766.255-.889 1.074-.351 2.333 1.836 4.299 1.18 5.852-2.524 5.981-3.228.112-8.897 2.842-8.981 4.324-.152 2.679-4.858 6.262-6.835 5.204-1.531-.819-2.69-.839-4.129-.069-2.736 1.464-2.528 3.171.3 2.461 1.813-.455 2.6.017 3.717 2.231.779 1.544 1.533 2.985 1.676 3.201.142.215.916-.153 1.719-.82 1.094-.908 1.983-.932 3.545-.096 1.146.613 2.494.862 2.995.553.5-.309 1.21-.078 1.576.515.366.593 1.748 1.489 3.069 1.992 1.322.502 2.403 1.6 2.403 2.438 0 .905.914 1.538 2.25 1.557 4.052.057 6.268 2.535 4.918 5.498-2.076 4.556-1.165 5.061 2.219 1.232 1.817-2.056 3.598-3.443 3.958-3.083 1.146 1.146.706 4.872-.813 6.88-1.838 2.43-1.903 3.441-.219 3.441 2.791 0 12.395-13.045 11.121-15.106-.35-.568-2.375-.907-4.498-.753-7.185.518-12.034-8.671-6.652-12.607.94-.687 2-2.776 2.357-4.642.356-1.865 1.482-4.197 2.503-5.181 2.234-2.154 2.433-3.87.356-3.073-2.077.797-1.88-.984.329-2.983 2.315-2.095 2.914-2.079 3.482.095.368 1.411.479 1.344.573-.345.194-3.504-10.858-10.396-14.457-9.015-.785.301-1.427.111-1.427-.421 0-1.208-10.386-1.111-14.701.137m-6.171 4.567c1.22 1.489 1.128 1.611-.838 1.104-2.966-.764-10.658 7.381-12.371 13.1C21.386 39.991 23.206 47 26.066 47c1.256 0 1.599-.564 1.222-2.005-.796-3.045 1.553-5.162 5.363-4.834 2.871.248 4.034-.469 8.875-5.467 3.064-3.164 5.996-5.49 6.515-5.169 1.356.838 4.002-.867 3.164-2.039-1.84-2.573-5.232-3.581-5.916-1.759-1.195 3.186-3.4 4.158-5.449 2.404C36.633 25.385 38.096 23 42.988 23c1.321 0 1.683-.542 1.311-1.964-.451-1.725-.692-1.786-1.978-.5-1.885 1.886-3.951 1.87-4.683-.036-.316-.825-1.094-1.5-1.729-1.5-.785 0-.715.535.219 1.673m10.331-.606c-.396.64.08.94 1.191.75 1.068-.183 1.744.211 1.6.933-.138.688.425 1.25 1.25 1.25 1.991 0 1.928-2.622-.082-3.393-2.258-.867-3.208-.756-3.959.46m-6.293 4.809c-1.063.674-.994.976.34 1.488 1.98.76 3.77-.109 2.951-1.433-.706-1.142-1.553-1.157-3.291-.055M77 27.736c0 .619-1.013 1.269-2.25 1.444-1.237.176-2.694 1.332-3.237 2.57-.543 1.237-1.781 2.25-2.75 2.25-.97 0-1.763.45-1.763 1 0 1.574 3.617 1.167 5.058-.57.716-.863 2.1-1.361 3.074-1.106.975.255 1.99-.051 2.256-.68.298-.706 1.274-.239 2.548 1.217 2.989 3.419 2.638.305-.436-3.861-1.375-1.864-2.5-2.882-2.5-2.264m-3.187 7.947c.721.289 1.584.253 1.916-.079.332-.332-.258-.568-1.312-.525-1.165.048-1.402.285-.604.604m-4.624 2.031c-1.271.243-2.593 1.194-2.938 2.114-.345.919-1.296 2.174-2.115 2.787-1.999 1.499-2.241 5.377-.506 8.134 1.193 1.896 2.189 2.216 6.344 2.035 5.677-.247 6.016-.032 6.953 4.415l.695 3.301 1.799-3.741c2.964-6.166 4.709-2.272 2.125 4.741-.406 1.1.477-.025 1.961-2.5 2.375-3.962 2.64-5.249 2.21-10.76-.588-7.543-1.821-9.369-5.789-8.576-2.121.425-3.064.146-3.52-1.042-.605-1.578-2.479-1.814-7.219-.908m9.811.345c0 .582.45.781 1 .441s1-.816 1-1.059S80.55 37 80 37s-1 .477-1 1.059m-49.432 8.832c-.303.489.563 1.62 1.925 2.512 2.461 1.613 2.469 1.608 1.331-.89-1.186-2.602-2.306-3.16-3.256-1.622m-7.983 3.859c.372 2.063 1.18 4.382 1.795 5.154.616.772 1.068 1.672 1.005 2C23.707 61.434 35.213 73 39.404 73c1.251 0 .549-7.081-.752-7.58-3.202-1.229-5.93-6.515-4.725-9.159 1-2.195.855-2.729-1.129-4.141-1.85-1.316-10.455-5.116-11.593-5.119-.163-.001.008 1.687.38 3.749m-9.638 2.587c-.261 2.66-.162 5.03.22 5.266 1.182.731 1.427-.921.829-5.603l-.574-4.5-.475 4.837m25.467-1.635c-.308.989-.977 2.579-1.487 3.534-1.522 2.851-1.086 4.451 2.073 7.61 1.979 1.98 3 4.005 3 5.955 0 1.625.67 3.51 1.489 4.19 1.798 1.492 8.455.499 8.626-1.286.064-.663.176-1.88.25-2.705.074-.825 1.035-1.5 2.135-1.5 1.374 0 2.108-.782 2.346-2.5.19-1.375.848-3.111 1.462-3.858 1.398-1.7-1.549-4.142-4.999-4.142C50.902 57 50 56.402 50 55.469c0-.843-.788-1.822-1.75-2.177-.962-.356-1.975-.952-2.25-1.325-1.358-1.843-8.03-2.049-8.586-.265m37.73 12.048c-1.091 2.55-1.066 2.609.34.809.834-1.068 1.516-2.305 1.516-2.75 0-1.52-.678-.81-1.856 1.941M25 84.189c0 .874.907 2.652 2.016 3.95l2.016 2.361-1.206-3C26.27 83.629 25 82.142 25 84.189" fill-rule="evenodd"/>
<path fill="#10a5b3" stroke="#10a5b3" d="M55.614 9.874c-2.044 2.259-1.789 2.412 6.582 3.973 3.804.708 4.805.592 5.268-.613.695-1.812-2.17-4.159-5.132-4.202-1.193-.018-2.796-.273-3.563-.567-.767-.295-2.187.34-3.155 1.409M61.5 11c.34.55 1.293 1 2.118 1s1.222-.45.882-1c-.34-.55-1.293-1-2.118-1s-1.222.45-.882 1M32 15c-.901.582-1.025.975-.309.985.655.008 1.469-.435 1.809-.985.767-1.242.421-1.242-1.5 0m20.547.924-2.954.579 2.793 1.83c2.613 1.712 2.997 1.725 5.953.206 1.871-.962 2.345-1.49 1.161-1.295-1.1.181-2.45-.173-3-.786-.56-.624-2.298-.859-3.953-.534M68.5 17c.34.55 1.379.993 2.309.985 1.457-.014 1.484-.15.191-.985-1.958-1.266-3.282-1.266-2.5 0M28 18.059c0 .582.45.781 1 .441s1-.816 1-1.059S29.55 17 29 17s-1 .477-1 1.059M76 22c0 .55.563.887 1.25.75.688-.137 1.173.205 1.08.76-.094.556 1.132 2.581 2.723 4.5 3.821 4.61 3.776 2.435-.059-2.86C78.125 21.19 76 19.849 76 22m-39.554 1.087c-.369.598-1.492.873-2.495.61-1.578-.412-1.786.081-1.542 3.663.154 2.277.351 5.828.436 7.89.217 5.247 2.067 4.847 8.756-1.896 4.245-4.278 5.805-5.314 6.446-4.279.918 1.486 2.222.701 2.55-1.535.115-.784-.367-1.182-1.094-.903-.716.275-1.598.019-1.961-.569-.363-.587-1.11-1.068-1.66-1.068-.55 0-.738.423-.419.94.32.518-.413 1.867-1.628 2.999l-2.209 2.058-2.365-2.222c-1.663-1.562-2.196-2.898-1.794-4.498.605-2.412.099-3.002-1.021-1.19M20.872 24.75c-1.243 1.586-1.208 1.621.378.378C22.916 23.821 23.445 23 22.622 23c-.207 0-.995.788-1.75 1.75m33.403 4.747c.212 2.82-.029 3.032-4.041 3.57C45.909 33.647 39 38.912 39 41.629c0 1.446-3.528 2.781-4.98 1.884-1.264-.782-.057 2.556 1.493 4.128.719.729 1.709.814 2.74.237 1.002-.561 1.851-.519 2.239.11.344.556 1.655 1.012 2.914 1.012 1.261 0 3.904 1.57 5.891 3.5 1.982 1.925 4.471 3.5 5.531 3.5 2.804 0 4.506 2.533 3.744 5.571-.727 2.895.868 2.521 3.235-.76 2.844-3.942 4.377-.055 2.218 5.624-1.911 5.026 1.398 2.679 6.145-4.359 5.039-7.472 4.848-8.44-1.468-7.415-6.641 1.078-10.073-8.055-5.202-13.843 4.003-4.758 3.267-6.703-3.659-9.672-2.54-1.089-4.883-2.58-5.205-3.313-.322-.733-.484.016-.361 1.664M28 29.5c0 .825.436 1.5.969 1.5.532 0 .709-.675.393-1.5-.317-.825-.753-1.5-.969-1.5-.216 0-.393.675-.393 1.5m49 .5c0 .55.477 1 1.059 1s.781-.45.441-1-.816-1-1.059-1-.441.45-.441 1m-61.777 2.231c-.584.704-1.345 2.628-1.69 4.275-.588 2.804-.493 2.75 1.492-.85 2.108-3.823 2.226-5.868.198-3.425M67.5 35c-.34.55.11 1 1 1s1.34-.45 1-1c-.34-.55-.79-1-1-1-.21 0-.66.45-1 1m19.132 3.75c2.657 15.304.054 27.844-7.587 36.546-4.846 5.52-1.441 4.466 5.16-1.597C91.497 67.002 95.284 58 90.811 58c-1.534 0-.496-9.35 1.189-10.718 1.045-.849 1.121-1.228.25-1.25-.687-.018-1.25-.938-1.25-2.046 0-1.107-.417-2.795-.927-3.75-.51-.955-1.171-2.524-1.469-3.486-1.061-3.429-2.637-1.831-1.972 2M67 39.592c0 .765-.9 1.953-2 2.64-2.491 1.556-2.695 6.949-.338 8.896.915.754 3.713 1.372 6.218 1.372 3.79 0 4.754.397 5.738 2.367l1.183 2.367 1.793-2.737 1.793-2.737 1.705 2.106c2.078 2.565 2.745 1.263 2.237-4.366-.834-9.247-.704-8.992-4.634-9.103-2-.057-4.212-.577-4.916-1.156-1.948-1.602-8.779-1.33-8.779.351M38.393 51.419c-1.552 4.043-.89 9.831 1.323 11.572 1.283 1.01 2.284 2.885 2.284 4.28 0 1.366.648 3.022 1.44 3.679 1.916 1.591 7.148.969 6.775-.805-.432-2.056 1.631-3.998 3.678-3.463 1.453.38 1.942-.277 2.426-3.259.746-4.596.504-5.008-3.39-5.787-1.794-.359-3.311-1.381-3.581-2.412-.749-2.867-10.073-6.105-10.955-3.805" fill-rule="evenodd"/>
</svg>